<svg width="17" height="18" viewBox="0 0 17 18" fill="none" xmlns="http://www.w3.org/2000/svg">
<g id="Frame">
<path id="Vector" d="M4.69838 7.9375C5.26929 7.9375 5.78425 7.62158 6.137 7.1725C6.68685 6.47098 7.37709 5.89196 8.16354 5.4725C8.67567 5.2005 9.1198 4.79533 9.33442 4.25771C9.48516 3.88105 9.56257 3.47907 9.5625 3.07337V2.625C9.5625 2.4841 9.61847 2.34898 9.7181 2.24935C9.81773 2.14972 9.95286 2.09375 10.0938 2.09375C10.5164 2.09375 10.9218 2.26166 11.2207 2.56055C11.5196 2.85943 11.6875 3.26481 11.6875 3.6875C11.6875 4.5035 11.5033 5.27629 11.1754 5.96692C10.987 6.36217 11.2512 6.875 11.6889 6.875H13.9032C14.6299 6.875 15.2809 7.36658 15.3581 8.08979C15.39 8.38871 15.4063 8.69187 15.4063 9C15.4092 10.9382 14.7468 12.8188 13.5299 14.3274C13.255 14.6688 12.8308 14.8437 12.393 14.8437H9.54834C9.20621 14.8437 8.8655 14.7885 8.54038 14.6808L6.33463 13.9442C6.00958 13.8361 5.66923 13.7811 5.32667 13.7812H4.182M4.182 13.7812C4.24079 13.9265 4.30454 14.0681 4.37325 14.2077C4.51279 14.491 4.318 14.8437 4.00279 14.8437H3.35963C2.72992 14.8437 2.14625 14.4768 1.96279 13.8747C1.71746 13.0695 1.59309 12.2324 1.59375 11.3906C1.59375 10.2906 1.80271 9.24012 2.18238 8.27537C2.39913 7.72713 2.95163 7.40625 3.54167 7.40625H4.28754C4.62188 7.40625 4.81525 7.80008 4.64171 8.08625C4.03672 9.08213 3.71764 10.2254 3.71946 11.3906C3.71946 12.2364 3.88379 13.0432 4.18271 13.7812H4.182ZM10.0938 6.875H11.6875" stroke="#858A8F" stroke-width="1.5" stroke-linecap="round" stroke-linejoin="round"/>
</g>
</svg>
