<svg width="17" height="18" viewBox="0 0 17 18" fill="none" xmlns="http://www.w3.org/2000/svg">
<g id="Frame">
<path id="Vector" d="M14.3437 6.52863C14.9699 6.72979 15.4062 7.32763 15.4062 8.014V11.0499C15.4062 11.8546 14.8063 12.5374 14.0037 12.6033C13.7629 12.6224 13.5221 12.6401 13.2812 12.6543V14.8438L11.1562 12.7188C10.1972 12.7188 9.248 12.6798 8.30875 12.6033C8.10428 12.5868 7.90538 12.5284 7.72437 12.4319M14.3437 6.52863C14.2343 6.4934 14.1212 6.47082 14.0066 6.46133C12.1096 6.30386 10.2029 6.30386 8.30592 6.46133C7.50479 6.52792 6.90625 7.21004 6.90625 8.014V11.0499C6.90625 11.6428 7.23208 12.1691 7.72437 12.4319M14.3437 6.52863V5.20121C14.3437 4.053 13.5277 3.05779 12.3887 2.90975C10.9231 2.71977 9.44668 2.62466 7.96875 2.625C6.47062 2.625 4.99517 2.72204 3.54875 2.90975C2.40975 3.05779 1.59375 4.053 1.59375 5.20121V9.61129C1.59375 10.7595 2.40975 11.7547 3.54875 11.9028C3.95746 11.9559 4.36829 12.0019 4.78125 12.0402V15.375L7.72437 12.4319" stroke="#858A8F" stroke-width="1.5" stroke-linecap="round" stroke-linejoin="round"/>
</g>
</svg>
