<svg width="19" height="22" viewBox="0 0 19 22" fill="none" xmlns="http://www.w3.org/2000/svg">
<g id="whatsapp logo" clip-path="url(#clip0_85_3132)">
<path id="Vector" d="M16.1542 4.11787C14.3772 2.33662 12.0107 1.35693 9.49576 1.35693C4.30469 1.35693 0.0805804 5.58104 0.0805804 10.7721C0.0805804 12.4304 0.51317 14.0505 1.33594 15.4797L0 20.3569L4.99174 19.0464C6.36585 19.7971 7.91384 20.1915 9.49152 20.1915H9.49576C14.6826 20.1915 19 15.9674 19 10.7764C19 8.2614 17.9312 5.89912 16.1542 4.11787ZM9.49576 18.6054C8.08772 18.6054 6.70937 18.2279 5.50915 17.5154L5.225 17.3458L2.26473 18.1219L3.05357 15.2337L2.86696 14.9368C2.08237 13.69 1.67098 12.2522 1.67098 10.7721C1.67098 6.45894 5.18259 2.94734 9.5 2.94734C11.5908 2.94734 13.5545 3.76162 15.0304 5.24175C16.5062 6.72189 17.4138 8.6855 17.4096 10.7764C17.4096 15.0938 13.8089 18.6054 9.49576 18.6054ZM13.7877 12.7442C13.5545 12.6255 12.3967 12.0572 12.1804 11.9808C11.9641 11.9002 11.8071 11.8621 11.6502 12.0996C11.4933 12.3371 11.0437 12.863 10.9038 13.0241C10.7681 13.181 10.6281 13.2022 10.3949 13.0835C9.01228 12.3922 8.10469 11.8493 7.19286 10.2844C6.95112 9.86876 7.4346 9.89845 7.88415 8.99934C7.96049 8.84242 7.92232 8.70671 7.86295 8.58796C7.80357 8.46921 7.33281 7.3114 7.13772 6.84064C6.94688 6.3826 6.75179 6.44622 6.60759 6.43774C6.47187 6.42926 6.31495 6.42926 6.15804 6.42926C6.00112 6.42926 5.74665 6.48863 5.53036 6.72189C5.31406 6.95939 4.70759 7.52769 4.70759 8.6855C4.70759 9.84332 5.55156 10.963 5.66607 11.1199C5.78482 11.2768 7.32433 13.6518 9.68661 14.6739C11.1795 15.3185 11.7647 15.3737 12.5112 15.2634C12.965 15.1955 13.9022 14.6951 14.0973 14.1438C14.2924 13.5924 14.2924 13.1217 14.233 13.0241C14.1779 12.9181 14.021 12.8587 13.7877 12.7442Z" fill="black"/>
</g>
<defs>
<clipPath id="clip0_85_3132">
<rect width="19" height="21.7143" fill="white"/>
</clipPath>
</defs>
</svg>
