<svg width="19" height="20" viewBox="0 0 19 20" fill="none" xmlns="http://www.w3.org/2000/svg">
<path fill-rule="evenodd" clip-rule="evenodd" d="M8.23427 0.5C7.31769 0.5 6.53546 1.16265 6.38478 2.06675L6.20612 3.13873C6.18596 3.25964 6.09179 3.3998 5.90948 3.48747C5.56542 3.65292 5.23604 3.8438 4.92377 4.0576C4.75728 4.17159 4.58896 4.1832 4.47406 4.14015L3.45488 3.75833C2.59656 3.43678 1.63158 3.78289 1.17329 4.57666L0.251306 6.17358C-0.20698 6.96736 -0.0242249 7.97611 0.683409 8.55866L1.52393 9.25061C1.61856 9.32851 1.69267 9.47982 1.67757 9.68072C1.66343 9.86876 1.65625 10.0586 1.65625 10.25C1.65625 10.4415 1.66344 10.6314 1.67758 10.8195C1.69269 11.0204 1.61858 11.1717 1.52395 11.2496L0.683409 11.9416C-0.0242251 12.5241 -0.20698 13.5329 0.251306 14.3267L1.17329 15.9236C1.63157 16.7174 2.59656 17.0635 3.45488 16.7419L4.47429 16.36C4.58918 16.317 4.7575 16.3286 4.92398 16.4425C5.23619 16.6563 5.5655 16.8471 5.90948 17.0125C6.09179 17.1002 6.18596 17.2404 6.20612 17.3613L6.38478 18.4332C6.53546 19.3374 7.31769 20 8.23427 20H10.0782C10.9948 20 11.777 19.3374 11.9277 18.4332L12.1064 17.3613C12.1265 17.2404 12.2207 17.1002 12.403 17.0125C12.7471 16.8471 13.0765 16.6562 13.3887 16.4424C13.5552 16.3284 13.7235 16.3168 13.8384 16.3598L14.8576 16.7417C15.7159 17.0632 16.6809 16.7171 17.1392 15.9233L18.0612 14.3264C18.5195 13.5326 18.3367 12.5239 17.6291 11.9413L16.7886 11.2494C16.6939 11.1715 16.6198 11.0202 16.6349 10.8193C16.6491 10.6312 16.6562 10.4414 16.6562 10.25C16.6562 10.0585 16.6491 9.86862 16.6349 9.68051C16.6198 9.47961 16.6939 9.32828 16.7885 9.25038L17.6291 8.55842C18.3367 7.97587 18.5195 6.96711 18.0612 6.17334L17.1392 4.57642C16.6809 3.78264 15.7159 3.43654 14.8576 3.75809L13.8382 4.14C13.7233 4.18304 13.555 4.17144 13.3885 4.05746C13.0763 3.84371 12.747 3.65289 12.403 3.48747C12.2207 3.3998 12.1265 3.25964 12.1064 3.13873L11.9277 2.06675C11.777 1.16265 10.9948 0.5 10.0782 0.5H8.23427ZM9.15637 14C11.2274 14 12.9064 12.3211 12.9064 10.25C12.9064 8.17893 11.2274 6.5 9.15637 6.5C7.0853 6.5 5.40637 8.17893 5.40637 10.25C5.40637 12.3211 7.0853 14 9.15637 14Z" fill="white"/>
</svg>
