<svg width="76" height="76" viewBox="0 0 76 76" fill="none" xmlns="http://www.w3.org/2000/svg">
<path d="M75.7131 38C75.7131 58.7107 58.9238 75.5 38.2131 75.5C17.5024 75.5 0.713074 58.7107 0.713074 38C0.713074 17.2893 17.5024 0.5 38.2131 0.5C58.9238 0.5 75.7131 17.2893 75.7131 38Z" fill="url(#paint0_linear_35_1314)"/>
<path d="M58.2283 19.25H18.6283C15.9058 19.25 13.703 21.3594 13.703 23.9375L13.6783 52.0625C13.6783 54.6406 15.9058 56.75 18.6283 56.75H58.2283C60.9508 56.75 63.1783 54.6406 63.1783 52.0625V23.9375C63.1783 21.3594 60.9508 19.25 58.2283 19.25ZM45.8533 52.0625H18.6283V42.6875H45.8533V52.0625ZM45.8533 40.3438H18.6283V30.9687H45.8533V40.3438ZM58.2283 52.0625H48.3283V30.9687H58.2283V52.0625Z" fill="white"/>
<defs>
<linearGradient id="paint0_linear_35_1314" x1="9.17827" y1="63.5" x2="65.4283" y2="12.5" gradientUnits="userSpaceOnUse">
<stop stop-color="#8EAEFF"/>
<stop offset="1" stop-color="#1254FF" stop-opacity="0.71"/>
</linearGradient>
</defs>
</svg>
