<svg width="77" height="78" viewBox="0 0 77 78" fill="none" xmlns="http://www.w3.org/2000/svg">
<path d="M77 39C77 60.0661 59.9226 77.1435 38.8565 77.1435C17.7905 77.1435 0.713074 60.0661 0.713074 39C0.713074 17.934 17.7905 0.856567 38.8565 0.856567C59.9226 0.856567 77 17.934 77 39Z" fill="url(#paint0_linear_35_1312)"/>
<path d="M26.2592 51.3967C26.2592 52.568 27.2204 53.5264 28.3953 53.5264H30.5313V60.9802C30.5313 62.7479 31.9624 64.1747 33.7353 64.1747C35.5083 64.1747 36.9394 62.7479 36.9394 60.9802V53.5264H41.2115V60.9802C41.2115 62.7479 42.6426 64.1747 44.4155 64.1747C46.1884 64.1747 47.6196 62.7479 47.6196 60.9802V53.5264H49.7556C50.9304 53.5264 51.8916 52.568 51.8916 51.3967V30.0999H26.2592V51.3967ZM20.9191 30.0999C19.1462 30.0999 17.7151 31.5268 17.7151 33.2944V48.2022C17.7151 49.9698 19.1462 51.3967 20.9191 51.3967C22.692 51.3967 24.1232 49.9698 24.1232 48.2022V33.2944C24.1232 31.5268 22.692 30.0999 20.9191 30.0999ZM57.2317 30.0999C55.4588 30.0999 54.0277 31.5268 54.0277 33.2944V48.2022C54.0277 49.9698 55.4588 51.3967 57.2317 51.3967C59.0046 51.3967 60.4358 49.9698 60.4358 48.2022V33.2944C60.4358 31.5268 59.0046 30.0999 57.2317 30.0999ZM46.6156 17.6626L49.3925 14.894C49.8197 14.4681 49.8197 13.8079 49.3925 13.382C48.9653 12.956 48.3031 12.956 47.8759 13.382L44.7146 16.5339C43.0271 15.682 41.1047 15.1922 39.0754 15.1922C37.0248 15.1922 35.1024 15.682 33.3936 16.5339L30.2109 13.382C29.7837 12.956 29.1215 12.956 28.6943 13.382C28.2671 13.8079 28.2671 14.4681 28.6943 14.894L31.4925 17.6839C28.3312 20.0052 26.2592 23.7322 26.2592 27.9702H51.8916C51.8916 23.7322 49.8197 19.9839 46.6156 17.6626ZM34.8034 23.7109H32.6673V21.5812H34.8034V23.7109ZM45.4835 23.7109H43.3475V21.5812H45.4835V23.7109Z" fill="white"/>
<defs>
<linearGradient id="paint0_linear_35_1312" x1="9.32352" y1="64.9376" x2="66.5387" y2="13.0625" gradientUnits="userSpaceOnUse">
<stop stop-color="#8EAEFF"/>
<stop offset="1" stop-color="#1254FF" stop-opacity="0.71"/>
</linearGradient>
</defs>
</svg>
